<svg width="139" height="139" viewBox="0 0 139 139" fill="none" xmlns="http://www.w3.org/2000/svg">
<path d="M67 100C67 80.67 82.67 65 102 65H137V97.6667C137 118.285 120.285 135 99.6667 135V135C81.6254 135 67 120.375 67 102.333V100Z" fill="#444C56"/>
<g filter="url(#filter0_d_8_14)">
<path d="M2 97.6667C2 79.6254 16.6254 65 34.6667 65H37C56.33 65 72 80.67 72 100V135H39.3333C18.7147 135 2 118.285 2 97.6667V97.6667Z" fill="#5C697B"/>
</g>
<g filter="url(#filter1_d_8_14)">
<path d="M2 37.3333C2 16.7147 18.7147 0 39.3333 0V0C57.3746 0 72 14.6254 72 32.6667V35C72 54.33 56.33 70 37 70H2V37.3333Z" fill="#64748B"/>
</g>
<g filter="url(#filter2_d_8_14)">
<path d="M67 0H99.6667C120.285 0 137 16.7147 137 37.3333V37.3333C137 55.3746 122.375 70 104.333 70H102C82.67 70 67 54.33 67 35V0Z" fill="#7386A2"/>
</g>
<defs>
<filter id="filter0_d_8_14" x="0" y="65" width="74" height="74" filterUnits="userSpaceOnUse" color-interpolation-filters="sRGB">
<feFlood flood-opacity="0" result="BackgroundImageFix"/>
<feColorMatrix in="SourceAlpha" type="matrix" values="0 0 0 0 0 0 0 0 0 0 0 0 0 0 0 0 0 0 127 0" result="hardAlpha"/>
<feOffset dy="2"/>
<feGaussianBlur stdDeviation="1"/>
<feComposite in2="hardAlpha" operator="out"/>
<feColorMatrix type="matrix" values="0 0 0 0 0 0 0 0 0 0 0 0 0 0 0 0 0 0 0.15 0"/>
<feBlend mode="normal" in2="BackgroundImageFix" result="effect1_dropShadow_8_14"/>
<feBlend mode="normal" in="SourceGraphic" in2="effect1_dropShadow_8_14" result="shape"/>
</filter>
<filter id="filter1_d_8_14" x="0" y="0" width="74" height="74" filterUnits="userSpaceOnUse" color-interpolation-filters="sRGB">
<feFlood flood-opacity="0" result="BackgroundImageFix"/>
<feColorMatrix in="SourceAlpha" type="matrix" values="0 0 0 0 0 0 0 0 0 0 0 0 0 0 0 0 0 0 127 0" result="hardAlpha"/>
<feOffset dy="2"/>
<feGaussianBlur stdDeviation="1"/>
<feComposite in2="hardAlpha" operator="out"/>
<feColorMatrix type="matrix" values="0 0 0 0 0 0 0 0 0 0 0 0 0 0 0 0 0 0 0.15 0"/>
<feBlend mode="normal" in2="BackgroundImageFix" result="effect1_dropShadow_8_14"/>
<feBlend mode="normal" in="SourceGraphic" in2="effect1_dropShadow_8_14" result="shape"/>
</filter>
<filter id="filter2_d_8_14" x="65" y="0" width="74" height="74" filterUnits="userSpaceOnUse" color-interpolation-filters="sRGB">
<feFlood flood-opacity="0" result="BackgroundImageFix"/>
<feColorMatrix in="SourceAlpha" type="matrix" values="0 0 0 0 0 0 0 0 0 0 0 0 0 0 0 0 0 0 127 0" result="hardAlpha"/>
<feOffset dy="2"/>
<feGaussianBlur stdDeviation="1"/>
<feComposite in2="hardAlpha" operator="out"/>
<feColorMatrix type="matrix" values="0 0 0 0 0 0 0 0 0 0 0 0 0 0 0 0 0 0 0.15 0"/>
<feBlend mode="normal" in2="BackgroundImageFix" result="effect1_dropShadow_8_14"/>
<feBlend mode="normal" in="SourceGraphic" in2="effect1_dropShadow_8_14" result="shape"/>
</filter>
</defs>
</svg>
