<svg width="140" height="140" viewBox="0 0 140 140" fill="none" xmlns="http://www.w3.org/2000/svg">
<path d="M0 37.3333C0 16.7147 16.7147 0 37.3333 0V0C55.3746 0 70 14.6254 70 32.6667V35C70 54.33 54.33 70 35 70H0V37.3333Z" fill="#5D93B7"/>
<path d="M0 102.667C0 84.6254 14.6254 70 32.6667 70H35C54.33 70 70 85.67 70 105V140H37.3333C16.7147 140 0 123.285 0 102.667V102.667Z" fill="#4E7895"/>
<path d="M70 0H102.667C123.285 0 140 16.7147 140 37.3333V37.3333C140 55.3746 125.375 70 107.333 70H105C85.67 70 70 54.33 70 35V0Z" fill="#6FAAD0"/>
<path d="M70 105C70 85.67 85.67 70 105 70H140V102.667C140 123.285 123.285 140 102.667 140V140C84.6254 140 70 125.375 70 107.333V105Z" fill="#3F6177"/>
</svg>
